<svg width="330" height="236" viewBox="0 0 330 236" fill="none" xmlns="http://www.w3.org/2000/svg">
<g filter="url(#filter0_d_369_436)">
<path d="M37.402 67.64C34.458 67.64 30.042 67.4053 24.154 66.936V59.192C29.4447 60.1733 33.434 60.664 36.122 60.664C38.4687 60.664 40.1753 60.408 41.242 59.896C42.3087 59.3413 42.842 58.488 42.842 57.336V51.128C42.842 49.976 42.458 49.1653 41.69 48.696C40.922 48.184 39.6633 47.928 37.914 47.928H25.114V25.464H51.354V32.632H34.458V41.08H40.986C43.4607 41.08 45.8713 41.5493 48.218 42.488C49.498 43.0427 50.522 43.896 51.29 45.048C52.058 46.2 52.442 47.544 52.442 49.08V57.784C52.442 59.448 52.122 60.9413 51.482 62.264C50.842 63.544 50.0313 64.5253 49.05 65.208C48.1967 65.848 47.0447 66.36 45.594 66.744C44.186 67.128 42.8207 67.384 41.498 67.512C39.962 67.5973 38.5967 67.64 37.402 67.64ZM75.871 67.64C73.9937 67.64 72.4577 67.576 71.263 67.448C70.0683 67.32 68.767 67.064 67.359 66.68C65.9083 66.2533 64.735 65.656 63.839 64.888C62.943 64.0773 62.1963 62.9253 61.599 61.432C60.959 59.9813 60.639 58.232 60.639 56.184V36.28C60.639 34.3173 60.9377 32.5893 61.535 31.096C62.1323 29.6027 62.9003 28.4293 63.839 27.576C64.6497 26.8507 65.759 26.2747 67.167 25.848C68.575 25.3787 69.983 25.08 71.391 24.952C73.0123 24.8667 74.5057 24.824 75.871 24.824C77.791 24.824 79.327 24.888 80.479 25.016C81.631 25.1013 82.911 25.3573 84.319 25.784C85.855 26.2533 87.071 26.872 87.967 27.64C88.863 28.408 89.631 29.5173 90.271 30.968C90.911 32.4187 91.231 34.1893 91.231 36.28V56.184C91.231 58.1467 90.911 59.8747 90.271 61.368C89.6737 62.8613 88.9057 64.0133 87.967 64.824C87.1137 65.5493 85.9403 66.1467 84.447 66.616C82.9963 67.0853 81.6097 67.3627 80.287 67.448C79.0923 67.576 77.6203 67.64 75.871 67.64ZM75.999 61.624C77.791 61.624 79.071 61.5173 79.839 61.304C80.607 61.048 81.119 60.6 81.375 59.96C81.631 59.32 81.759 58.2747 81.759 56.824V35.64C81.759 34.1893 81.631 33.144 81.375 32.504C81.119 31.864 80.607 31.4373 79.839 31.224C79.071 30.968 77.791 30.84 75.999 30.84C74.1643 30.84 72.8417 30.968 72.031 31.224C71.263 31.4373 70.751 31.864 70.495 32.504C70.239 33.144 70.111 34.1893 70.111 35.64V56.824C70.111 58.2747 70.239 59.32 70.495 59.96C70.751 60.6 71.263 61.048 72.031 61.304C72.8417 61.5173 74.1643 61.624 75.999 61.624ZM129.636 24.824H135.204L114.468 67.64H108.9L129.636 24.824ZM107.556 49.144C104.996 49.144 102.948 48.952 101.412 48.568C99.9187 48.1413 98.788 47.416 98.02 46.392C97.252 45.3253 96.868 43.7893 96.868 41.784V34.168C96.868 32.8027 97.0813 31.5867 97.508 30.52C97.9347 29.4533 98.4893 28.6213 99.172 28.024C99.7693 27.512 100.559 27.1067 101.54 26.808C102.521 26.4667 103.503 26.232 104.484 26.104C105.593 26.0187 106.617 25.976 107.556 25.976C108.879 25.976 109.945 26.0187 110.756 26.104C111.609 26.1893 112.505 26.3813 113.444 26.68C114.468 27.0213 115.3 27.4693 115.94 28.024C116.58 28.5787 117.113 29.368 117.54 30.392C117.967 31.416 118.18 32.6747 118.18 34.168V41.784C118.18 43.7893 117.796 45.3253 117.028 46.392C116.303 47.416 115.172 48.1413 113.636 48.568C112.143 48.952 110.116 49.144 107.556 49.144ZM107.556 44.28C109.903 44.28 111.076 43.6613 111.076 42.424V33.016C111.076 31.5653 109.903 30.84 107.556 30.84C105.167 30.84 103.972 31.5653 103.972 33.016V42.424C103.972 43.1493 104.249 43.64 104.804 43.896C105.359 44.152 106.276 44.28 107.556 44.28ZM136.228 67.64C133.668 67.64 131.62 67.4267 130.084 67C128.591 66.616 127.46 65.912 126.692 64.888C125.924 63.8213 125.54 62.2853 125.54 60.28V52.664C125.54 51.2987 125.753 50.0827 126.18 49.016C126.607 47.9493 127.161 47.1173 127.844 46.52C128.441 46.008 129.231 45.6027 130.212 45.304C131.193 44.9627 132.175 44.728 133.156 44.6C134.265 44.5147 135.289 44.472 136.228 44.472C137.551 44.472 138.617 44.5147 139.428 44.6C140.281 44.6853 141.177 44.8773 142.116 45.176C143.14 45.5173 143.972 45.9653 144.612 46.52C145.252 47.0747 145.785 47.864 146.212 48.888C146.639 49.912 146.852 51.1707 146.852 52.664V60.28C146.852 62.2853 146.468 63.8213 145.7 64.888C144.975 65.912 143.844 66.616 142.308 67C140.815 67.4267 138.788 67.64 136.228 67.64ZM136.228 62.776C138.575 62.776 139.748 62.1573 139.748 60.92V51.512C139.748 50.0613 138.575 49.336 136.228 49.336C133.839 49.336 132.644 50.0613 132.644 51.512V60.92C132.644 62.1573 133.839 62.776 136.228 62.776Z" fill="#FF2020"/>
</g>
<path d="M51.262 90.318H53.008V100.776H58.75V102H51.262V90.318ZM60.5056 90.138H62.1256V91.83H60.5056V90.138ZM60.5056 93.288H62.1256V102H60.5056V93.288ZM71.2533 101.442C71.0133 101.934 70.1373 102.18 68.6253 102.18C68.0733 102.18 67.6353 102.162 67.3113 102.126C66.9873 102.09 66.6693 102.018 66.3573 101.91C66.0333 101.79 65.7753 101.622 65.5833 101.406C65.3913 101.19 65.2353 100.896 65.1153 100.524C64.9953 100.164 64.9353 99.708 64.9353 99.156V95.934C64.9353 94.926 65.2473 94.206 65.8713 93.774C66.5073 93.33 67.5573 93.108 69.0213 93.108C70.4133 93.108 71.4033 93.33 71.9913 93.774C72.5793 94.206 72.8733 94.926 72.8733 95.934V105.744H71.2533V101.442ZM68.9493 101.064C69.5853 101.064 70.0593 101.022 70.3713 100.938C70.6953 100.842 70.9233 100.674 71.0553 100.434C71.1873 100.182 71.2533 99.816 71.2533 99.336V96.15C71.2533 95.598 71.1873 95.196 71.0553 94.944C70.9233 94.68 70.7013 94.506 70.3893 94.422C70.0773 94.326 69.6033 94.278 68.9673 94.278C68.2233 94.278 67.6893 94.32 67.3653 94.404C67.0533 94.488 66.8433 94.656 66.7353 94.908C66.6393 95.16 66.5913 95.574 66.5913 96.15V99.336C66.5913 99.828 66.6633 100.194 66.8073 100.434C66.9513 100.674 67.1853 100.842 67.5093 100.938C67.8453 101.022 68.3253 101.064 68.9493 101.064ZM78.3831 102.18C77.2671 102.18 76.4811 101.982 76.0251 101.586C75.5811 101.178 75.3591 100.542 75.3591 99.678V93.288H76.9791V99.588C76.9791 99.816 76.9971 100.002 77.0331 100.146C77.0811 100.278 77.1591 100.416 77.2671 100.56C77.4831 100.872 78.0111 101.028 78.8511 101.028C79.7391 101.028 80.3631 100.944 80.7231 100.776C81.0711 100.608 81.2451 100.302 81.2451 99.858V93.288H82.8651V102H81.2451V100.938C81.0891 101.766 80.1351 102.18 78.3831 102.18ZM85.6774 90.138H87.2974V91.83H85.6774V90.138ZM85.6774 93.288H87.2974V102H85.6774V93.288ZM93.2211 102.18C92.3571 102.18 91.6791 102.096 91.1871 101.928C90.6951 101.748 90.3351 101.46 90.1071 101.064C89.8911 100.668 89.7831 100.116 89.7831 99.408V95.574C89.7831 94.698 90.0531 94.068 90.5931 93.684C91.1451 93.3 92.0511 93.108 93.3111 93.108C94.0671 93.108 94.7151 93.204 95.2551 93.396C95.8071 93.588 96.0891 93.864 96.1011 94.224H96.1371L96.1011 92.01V89.4H97.7211V102H96.1371V100.974C96.1371 101.298 95.8791 101.574 95.3631 101.802C94.8471 102.054 94.1331 102.18 93.2211 102.18ZM93.5631 101.064C94.4631 101.064 95.1111 100.962 95.5071 100.758C95.9031 100.554 96.1011 100.206 96.1011 99.714V95.412C96.1011 94.632 95.3031 94.242 93.7071 94.242C92.7471 94.242 92.1231 94.314 91.8351 94.458C91.5351 94.602 91.3851 94.92 91.3851 95.412V99.714C91.3851 100.206 91.5471 100.554 91.8711 100.758C92.2071 100.962 92.7711 101.064 93.5631 101.064ZM100.39 90.138H102.01V91.83H100.39V90.138ZM100.39 93.288H102.01V102H100.39V93.288ZM108.474 102.18C107.73 102.18 107.148 102.102 106.728 101.946C106.308 101.778 106.002 101.502 105.81 101.118C105.63 100.722 105.54 100.17 105.54 99.462V94.35H103.596V93.288H105.54V90.588H107.178V93.288H110.292V94.35H107.178V99.552C107.178 99.984 107.226 100.308 107.322 100.524C107.43 100.74 107.61 100.896 107.862 100.992C108.126 101.076 108.504 101.118 108.996 101.118C109.152 101.118 109.584 101.07 110.292 100.974V102.036C109.68 102.132 109.074 102.18 108.474 102.18ZM114.132 102.126L110.766 93.288H112.53L114.96 100.398H114.996L117.192 93.288H118.83L114.456 105.744H112.764L114.132 102.126Z" fill="white"/>
<g filter="url(#filter1_d_369_436)">
<path d="M196.882 61.008C196.882 59.064 197.422 57.372 198.502 55.932C199.582 54.492 200.986 53.394 202.714 52.638C204.082 52.026 205.684 51.414 207.52 50.802C209.356 50.19 210.778 49.542 211.786 48.858C212.794 48.174 213.298 47.364 213.298 46.428V41.946C213.298 40.83 212.848 40.092 211.948 39.732C210.976 39.336 209.464 39.138 207.412 39.138C204.928 39.138 201.652 39.588 197.584 40.488V34.548C201.184 33.792 204.946 33.414 208.87 33.414C213.118 33.414 216.268 34.062 218.32 35.358C220.408 36.654 221.452 38.814 221.452 41.838V46.698C221.452 48.534 220.894 50.136 219.778 51.504C218.698 52.836 217.294 53.844 215.566 54.528C213.946 55.212 212.29 55.824 210.598 56.364C208.762 57.012 207.304 57.732 206.224 58.524C205.18 59.316 204.658 60.252 204.658 61.332V63.114H221.506V69H196.882V61.008ZM239.546 69.54C237.062 69.54 233.336 69.342 228.368 68.946V62.412C232.832 63.24 236.198 63.654 238.466 63.654C240.446 63.654 241.886 63.438 242.786 63.006C243.686 62.538 244.136 61.818 244.136 60.846V55.608C244.136 54.636 243.812 53.952 243.164 53.556C242.516 53.124 241.454 52.908 239.978 52.908H229.178V33.954H251.318V40.002H237.062V47.13H242.57C244.658 47.13 246.692 47.526 248.672 48.318C249.752 48.786 250.616 49.506 251.264 50.478C251.912 51.45 252.236 52.584 252.236 53.88V61.224C252.236 62.628 251.966 63.888 251.426 65.004C250.886 66.084 250.202 66.912 249.374 67.488C248.654 68.028 247.682 68.46 246.458 68.784C245.27 69.108 244.118 69.324 243.002 69.432C241.706 69.504 240.554 69.54 239.546 69.54ZM286.044 33.414H290.742L273.246 69.54H268.548L286.044 33.414ZM267.414 53.934C265.254 53.934 263.526 53.772 262.23 53.448C260.97 53.088 260.016 52.476 259.368 51.612C258.72 50.712 258.396 49.416 258.396 47.724V41.298C258.396 40.146 258.576 39.12 258.936 38.22C259.296 37.32 259.764 36.618 260.34 36.114C260.844 35.682 261.51 35.34 262.338 35.088C263.166 34.8 263.994 34.602 264.822 34.494C265.758 34.422 266.622 34.386 267.414 34.386C268.53 34.386 269.43 34.422 270.114 34.494C270.834 34.566 271.59 34.728 272.382 34.98C273.246 35.268 273.948 35.646 274.488 36.114C275.028 36.582 275.478 37.248 275.838 38.112C276.198 38.976 276.378 40.038 276.378 41.298V47.724C276.378 49.416 276.054 50.712 275.406 51.612C274.794 52.476 273.84 53.088 272.544 53.448C271.284 53.772 269.574 53.934 267.414 53.934ZM267.414 49.83C269.394 49.83 270.384 49.308 270.384 48.264V40.326C270.384 39.102 269.394 38.49 267.414 38.49C265.398 38.49 264.39 39.102 264.39 40.326V48.264C264.39 48.876 264.624 49.29 265.092 49.506C265.56 49.722 266.334 49.83 267.414 49.83ZM291.606 69.54C289.446 69.54 287.718 69.36 286.422 69C285.162 68.676 284.208 68.082 283.56 67.218C282.912 66.318 282.588 65.022 282.588 63.33V56.904C282.588 55.752 282.768 54.726 283.128 53.826C283.488 52.926 283.956 52.224 284.532 51.72C285.036 51.288 285.702 50.946 286.53 50.694C287.358 50.406 288.186 50.208 289.014 50.1C289.95 50.028 290.814 49.992 291.606 49.992C292.722 49.992 293.622 50.028 294.306 50.1C295.026 50.172 295.782 50.334 296.574 50.586C297.438 50.874 298.14 51.252 298.68 51.72C299.22 52.188 299.67 52.854 300.03 53.718C300.39 54.582 300.57 55.644 300.57 56.904V63.33C300.57 65.022 300.246 66.318 299.598 67.218C298.986 68.082 298.032 68.676 296.736 69C295.476 69.36 293.766 69.54 291.606 69.54ZM291.606 65.436C293.586 65.436 294.576 64.914 294.576 63.87V55.932C294.576 54.708 293.586 54.096 291.606 54.096C289.59 54.096 288.582 54.708 288.582 55.932V63.87C288.582 64.914 289.59 65.436 291.606 65.436Z" fill="#FF2020"/>
</g>
<path d="M195.262 90.318H199.906C203.182 90.318 204.82 91.434 204.82 93.666V98.832C204.82 100.944 203.188 102 199.924 102H195.262V90.318ZM199.798 100.812C202.03 100.812 203.146 100.14 203.146 98.796V93.648C203.146 93.216 203.056 92.85 202.876 92.55C202.696 92.25 202.444 92.028 202.12 91.884C201.796 91.752 201.46 91.662 201.112 91.614C200.764 91.554 200.356 91.524 199.888 91.524H197.008V100.812H199.798ZM211.043 102.18C208.379 102.18 207.047 101.292 207.047 99.516V96.078C207.047 95.022 207.347 94.266 207.947 93.81C208.559 93.342 209.543 93.108 210.899 93.108C212.183 93.108 213.107 93.33 213.671 93.774C214.247 94.218 214.535 94.986 214.535 96.078V98.004H208.685V99.318C208.685 99.918 208.895 100.35 209.315 100.614C209.735 100.878 210.383 101.01 211.259 101.01C212.087 101.01 213.065 100.866 214.193 100.578V101.82C213.089 102.06 212.039 102.18 211.043 102.18ZM212.915 96.942V95.574C212.915 95.046 212.753 94.686 212.429 94.494C212.117 94.29 211.577 94.188 210.809 94.188C210.065 94.188 209.525 94.29 209.189 94.494C208.853 94.686 208.685 95.046 208.685 95.574V96.942H212.915ZM215.708 93.288H217.418L219.83 100.596H219.92L222.26 93.288H223.826L220.784 102H218.84L215.708 93.288ZM229.008 102.18C226.344 102.18 225.012 101.292 225.012 99.516V96.078C225.012 95.022 225.312 94.266 225.912 93.81C226.524 93.342 227.508 93.108 228.864 93.108C230.148 93.108 231.072 93.33 231.636 93.774C232.212 94.218 232.5 94.986 232.5 96.078V98.004H226.65V99.318C226.65 99.918 226.86 100.35 227.28 100.614C227.7 100.878 228.348 101.01 229.224 101.01C230.052 101.01 231.03 100.866 232.158 100.578V101.82C231.054 102.06 230.004 102.18 229.008 102.18ZM230.88 96.942V95.574C230.88 95.046 230.718 94.686 230.394 94.494C230.082 94.29 229.542 94.188 228.774 94.188C228.03 94.188 227.49 94.29 227.154 94.494C226.818 94.686 226.65 95.046 226.65 95.574V96.942H230.88ZM234.968 89.4H236.588V102H234.968V89.4ZM243.088 102.18C242.32 102.18 241.744 102.15 241.36 102.09C240.976 102.042 240.592 101.928 240.208 101.748C239.812 101.568 239.524 101.28 239.344 100.884C239.164 100.476 239.074 99.93 239.074 99.246V96.222C239.074 95.682 239.14 95.208 239.272 94.8C239.404 94.392 239.578 94.074 239.794 93.846C239.974 93.642 240.244 93.486 240.604 93.378C240.976 93.258 241.354 93.18 241.738 93.144C242.17 93.12 242.62 93.108 243.088 93.108C243.712 93.108 244.18 93.126 244.492 93.162C244.816 93.186 245.158 93.246 245.518 93.342C245.89 93.45 246.178 93.612 246.382 93.828C246.586 94.044 246.76 94.356 246.904 94.764C247.036 95.184 247.102 95.67 247.102 96.222V99.246C247.102 100.266 246.868 101.01 246.4 101.478C246.208 101.67 245.932 101.82 245.572 101.928C245.212 102.036 244.84 102.108 244.456 102.144C244 102.168 243.544 102.18 243.088 102.18ZM243.088 101.118C243.592 101.118 243.958 101.106 244.186 101.082C244.414 101.058 244.636 100.992 244.852 100.884C245.068 100.788 245.218 100.632 245.302 100.416C245.398 100.188 245.446 99.876 245.446 99.48V95.952C245.446 95.412 245.38 95.022 245.248 94.782C245.116 94.53 244.888 94.368 244.564 94.296C244.252 94.212 243.76 94.17 243.088 94.17C242.416 94.17 241.918 94.212 241.594 94.296C241.282 94.368 241.06 94.53 240.928 94.782C240.796 95.022 240.73 95.412 240.73 95.952V99.48C240.73 99.876 240.772 100.188 240.856 100.416C240.952 100.632 241.108 100.788 241.324 100.884C241.54 100.992 241.762 101.058 241.99 101.082C242.218 101.106 242.584 101.118 243.088 101.118ZM249.629 93.288H251.231V94.224H251.249C251.381 93.48 252.371 93.108 254.219 93.108C255.323 93.108 256.157 93.342 256.721 93.81C257.285 94.266 257.567 94.854 257.567 95.574V99.156C257.567 99.672 257.489 100.122 257.333 100.506C257.189 100.89 256.997 101.19 256.757 101.406C256.541 101.61 256.241 101.772 255.857 101.892C255.485 102.012 255.113 102.09 254.741 102.126C254.405 102.162 253.997 102.18 253.517 102.18C252.989 102.18 252.503 102.12 252.059 102C251.627 101.868 251.357 101.682 251.249 101.442V105.744H249.629V93.288ZM253.553 101.082C254.177 101.082 254.651 101.04 254.975 100.956C255.311 100.86 255.551 100.692 255.695 100.452C255.839 100.212 255.911 99.846 255.911 99.354V96.15C255.911 95.61 255.839 95.208 255.695 94.944C255.551 94.68 255.311 94.506 254.975 94.422C254.651 94.326 254.171 94.278 253.535 94.278C252.899 94.278 252.425 94.326 252.113 94.422C251.801 94.506 251.579 94.68 251.447 94.944C251.315 95.196 251.249 95.598 251.249 96.15V99.354C251.249 99.846 251.315 100.212 251.447 100.452C251.591 100.692 251.825 100.86 252.149 100.956C252.473 101.04 252.941 101.082 253.553 101.082ZM260.052 93.288H261.672V94.35C261.84 93.522 262.818 93.108 264.606 93.108C266.058 93.108 266.964 93.504 267.324 94.296C267.432 93.912 267.756 93.618 268.296 93.414C268.848 93.21 269.52 93.108 270.312 93.108C271.392 93.108 272.154 93.312 272.598 93.72C273.042 94.116 273.264 94.746 273.264 95.61V102H271.644V95.718C271.644 95.49 271.626 95.304 271.59 95.16C271.554 95.016 271.482 94.872 271.374 94.728C271.134 94.428 270.6 94.278 269.772 94.278C269.136 94.278 268.662 94.32 268.35 94.404C268.038 94.488 267.822 94.632 267.702 94.836C267.594 95.04 267.54 95.334 267.54 95.718V102H265.92V95.718C265.92 95.49 265.902 95.304 265.866 95.16C265.83 95.016 265.758 94.872 265.65 94.728C265.41 94.428 264.882 94.278 264.066 94.278C263.406 94.278 262.908 94.32 262.572 94.404C262.236 94.488 262.002 94.632 261.87 94.836C261.738 95.028 261.672 95.322 261.672 95.718V102H260.052V93.288ZM279.738 102.18C277.074 102.18 275.742 101.292 275.742 99.516V96.078C275.742 95.022 276.042 94.266 276.642 93.81C277.254 93.342 278.238 93.108 279.594 93.108C280.878 93.108 281.802 93.33 282.366 93.774C282.942 94.218 283.23 94.986 283.23 96.078V98.004H277.38V99.318C277.38 99.918 277.59 100.35 278.01 100.614C278.43 100.878 279.078 101.01 279.954 101.01C280.782 101.01 281.76 100.866 282.888 100.578V101.82C281.784 102.06 280.734 102.18 279.738 102.18ZM281.61 96.942V95.574C281.61 95.046 281.448 94.686 281.124 94.494C280.812 94.29 280.272 94.188 279.504 94.188C278.76 94.188 278.22 94.29 277.884 94.494C277.548 94.686 277.38 95.046 277.38 95.574V96.942H281.61ZM285.699 93.288H287.319V94.35C287.487 93.522 288.441 93.108 290.181 93.108C291.297 93.108 292.077 93.312 292.521 93.72C292.977 94.116 293.205 94.746 293.205 95.61V102H291.585V95.7C291.585 95.472 291.567 95.286 291.531 95.142C291.495 94.998 291.423 94.854 291.315 94.71C291.075 94.41 290.541 94.26 289.713 94.26C289.077 94.26 288.585 94.308 288.237 94.404C287.901 94.488 287.661 94.632 287.517 94.836C287.385 95.04 287.319 95.328 287.319 95.7V102H285.699V93.288ZM299.671 102.18C298.927 102.18 298.345 102.102 297.925 101.946C297.505 101.778 297.199 101.502 297.007 101.118C296.827 100.722 296.737 100.17 296.737 99.462V94.35H294.793V93.288H296.737V90.588H298.375V93.288H301.489V94.35H298.375V99.552C298.375 99.984 298.423 100.308 298.519 100.524C298.627 100.74 298.807 100.896 299.059 100.992C299.323 101.076 299.701 101.118 300.193 101.118C300.349 101.118 300.781 101.07 301.489 100.974V102.036C300.877 102.132 300.271 102.18 299.671 102.18Z" fill="white"/>
<g filter="url(#filter2_d_369_436)">
<path d="M48.826 175.192L40.33 179.896V173.992L50.17 167.848H55.834V199H48.826V175.192ZM76.9578 199.48C74.7498 199.48 71.4378 199.304 67.0218 198.952V193.144C70.9898 193.88 73.9818 194.248 75.9978 194.248C77.7578 194.248 79.0378 194.056 79.8378 193.672C80.6378 193.256 81.0378 192.616 81.0378 191.752V187.096C81.0378 186.232 80.7498 185.624 80.1738 185.272C79.5978 184.888 78.6538 184.696 77.3418 184.696H67.7418V167.848H87.4218V173.224H74.7498V179.56H79.6458C81.5018 179.56 83.3098 179.912 85.0698 180.616C86.0298 181.032 86.7978 181.672 87.3738 182.536C87.9498 183.4 88.2378 184.408 88.2378 185.56V192.088C88.2378 193.336 87.9978 194.456 87.5178 195.448C87.0378 196.408 86.4298 197.144 85.6938 197.656C85.0538 198.136 84.1898 198.52 83.1018 198.808C82.0458 199.096 81.0218 199.288 80.0298 199.384C78.8778 199.448 77.8538 199.48 76.9578 199.48ZM118.29 167.368H122.466L106.914 199.48H102.738L118.29 167.368ZM101.73 185.608C99.8095 185.608 98.2735 185.464 97.1215 185.176C96.0015 184.856 95.1535 184.312 94.5775 183.544C94.0015 182.744 93.7135 181.592 93.7135 180.088V174.376C93.7135 173.352 93.8735 172.44 94.1935 171.64C94.5135 170.84 94.9295 170.216 95.4415 169.768C95.8895 169.384 96.4815 169.08 97.2175 168.856C97.9535 168.6 98.6895 168.424 99.4255 168.328C100.258 168.264 101.026 168.232 101.73 168.232C102.722 168.232 103.522 168.264 104.13 168.328C104.77 168.392 105.442 168.536 106.146 168.76C106.914 169.016 107.538 169.352 108.018 169.768C108.498 170.184 108.898 170.776 109.218 171.544C109.538 172.312 109.698 173.256 109.698 174.376V180.088C109.698 181.592 109.41 182.744 108.834 183.544C108.29 184.312 107.442 184.856 106.29 185.176C105.17 185.464 103.65 185.608 101.73 185.608ZM101.73 181.96C103.49 181.96 104.37 181.496 104.37 180.568V173.512C104.37 172.424 103.49 171.88 101.73 171.88C99.9375 171.88 99.0415 172.424 99.0415 173.512V180.568C99.0415 181.112 99.2495 181.48 99.6655 181.672C100.082 181.864 100.77 181.96 101.73 181.96ZM123.234 199.48C121.314 199.48 119.778 199.32 118.626 199C117.506 198.712 116.658 198.184 116.082 197.416C115.506 196.616 115.218 195.464 115.218 193.96V188.248C115.218 187.224 115.378 186.312 115.698 185.512C116.018 184.712 116.434 184.088 116.946 183.64C117.394 183.256 117.986 182.952 118.722 182.728C119.458 182.472 120.194 182.296 120.93 182.2C121.762 182.136 122.53 182.104 123.234 182.104C124.226 182.104 125.026 182.136 125.634 182.2C126.274 182.264 126.946 182.408 127.65 182.632C128.418 182.888 129.042 183.224 129.522 183.64C130.002 184.056 130.402 184.648 130.722 185.416C131.042 186.184 131.202 187.128 131.202 188.248V193.96C131.202 195.464 130.914 196.616 130.338 197.416C129.794 198.184 128.946 198.712 127.794 199C126.674 199.32 125.154 199.48 123.234 199.48ZM123.234 195.832C124.994 195.832 125.874 195.368 125.874 194.44V187.384C125.874 186.296 124.994 185.752 123.234 185.752C121.442 185.752 120.546 186.296 120.546 187.384V194.44C120.546 195.368 121.442 195.832 123.234 195.832Z" fill="#FF2020"/>
</g>
<path d="M44.762 220.318H47.372L51.116 230.038L51.17 230.056L54.716 220.318H57.236V232H55.706V222.118H55.616L51.854 232H50.288L46.418 222.118H46.328V232H44.762V220.318ZM62.8399 232.18C62.0119 232.18 61.3699 232.102 60.9139 231.946C60.4699 231.79 60.1459 231.514 59.9419 231.118C59.7499 230.722 59.6539 230.152 59.6539 229.408C59.6539 228.748 59.7439 228.238 59.9239 227.878C60.1159 227.506 60.4339 227.242 60.8779 227.086C61.3339 226.93 61.9759 226.852 62.8039 226.852H65.4139V225.466C65.4139 225.142 65.3479 224.896 65.2159 224.728C65.0959 224.548 64.8859 224.422 64.5859 224.35C64.2979 224.278 63.8719 224.242 63.3079 224.242C62.4079 224.242 61.4119 224.314 60.3199 224.458V223.27C61.5079 223.162 62.5819 223.108 63.5419 223.108C64.5499 223.108 65.2939 223.186 65.7739 223.342C66.2539 223.486 66.5839 223.744 66.7639 224.116C66.9439 224.488 67.0339 225.064 67.0339 225.844V232H65.4679V231.172C65.3359 231.844 64.4599 232.18 62.8399 232.18ZM63.1099 231.118C63.6979 231.118 64.1959 231.076 64.6039 230.992C65.1439 230.884 65.4139 230.632 65.4139 230.236V227.86H62.9119C62.3959 227.86 62.0239 227.902 61.7959 227.986C61.5679 228.058 61.4179 228.202 61.3459 228.418C61.2739 228.634 61.2379 228.982 61.2379 229.462C61.2379 229.894 61.2799 230.23 61.3639 230.47C61.4479 230.698 61.5979 230.866 61.8139 230.974C62.0299 231.07 62.3539 231.118 62.7859 231.118H63.1099ZM69.8435 223.288H71.3735V224.71C71.3735 224.434 71.4935 224.176 71.7335 223.936C71.9735 223.684 72.2795 223.486 72.6515 223.342C73.0235 223.186 73.3895 223.108 73.7495 223.108H74.5415V224.494H73.6415C72.8735 224.494 72.3155 224.596 71.9675 224.8C71.6315 224.992 71.4635 225.346 71.4635 225.862V232H69.8435V223.288ZM76.154 219.4H77.774V232H76.154V219.4ZM77.972 227.23L81.644 223.288H83.624L79.844 227.23L83.966 232H81.95L77.972 227.23ZM89.0721 232.18C86.4081 232.18 85.0761 231.292 85.0761 229.516V226.078C85.0761 225.022 85.3761 224.266 85.9761 223.81C86.5881 223.342 87.5721 223.108 88.9281 223.108C90.2121 223.108 91.1361 223.33 91.7001 223.774C92.2761 224.218 92.5641 224.986 92.5641 226.078V228.004H86.7141V229.318C86.7141 229.918 86.9241 230.35 87.3441 230.614C87.7641 230.878 88.4121 231.01 89.2881 231.01C90.1161 231.01 91.0941 230.866 92.2221 230.578V231.82C91.1181 232.06 90.0681 232.18 89.0721 232.18ZM90.9441 226.942V225.574C90.9441 225.046 90.7821 224.686 90.4581 224.494C90.1461 224.29 89.6061 224.188 88.8381 224.188C88.0941 224.188 87.5541 224.29 87.2181 224.494C86.8821 224.686 86.7141 225.046 86.7141 225.574V226.942H90.9441ZM98.6869 232.18C97.9429 232.18 97.3609 232.102 96.9409 231.946C96.5209 231.778 96.2149 231.502 96.0229 231.118C95.8429 230.722 95.7529 230.17 95.7529 229.462V224.35H93.8089V223.288H95.7529V220.588H97.3909V223.288H100.505V224.35H97.3909V229.552C97.3909 229.984 97.4389 230.308 97.5349 230.524C97.6429 230.74 97.8229 230.896 98.0749 230.992C98.3389 231.076 98.7169 231.118 99.2089 231.118C99.3649 231.118 99.7969 231.07 100.505 230.974V232.036C99.8929 232.132 99.2869 232.18 98.6869 232.18ZM102.275 220.138H103.895V221.83H102.275V220.138ZM102.275 223.288H103.895V232H102.275V223.288ZM106.705 223.288H108.325V224.35C108.493 223.522 109.447 223.108 111.187 223.108C112.303 223.108 113.083 223.312 113.527 223.72C113.983 224.116 114.211 224.746 114.211 225.61V232H112.591V225.7C112.591 225.472 112.573 225.286 112.537 225.142C112.501 224.998 112.429 224.854 112.321 224.71C112.081 224.41 111.547 224.26 110.719 224.26C110.083 224.26 109.591 224.308 109.243 224.404C108.907 224.488 108.667 224.632 108.523 224.836C108.391 225.04 108.325 225.328 108.325 225.7V232H106.705V223.288ZM120.317 235.96C119.129 235.96 118.127 235.894 117.311 235.762V234.61C118.751 234.778 119.801 234.862 120.461 234.862C121.289 234.862 121.889 234.73 122.261 234.466C122.645 234.202 122.837 233.764 122.837 233.152V231.064C122.813 231.448 122.549 231.73 122.045 231.91C121.553 232.09 120.929 232.18 120.173 232.18C119.273 232.18 118.571 232.096 118.067 231.928C117.575 231.76 117.221 231.484 117.005 231.1C116.801 230.716 116.699 230.194 116.699 229.534V225.988C116.699 224.956 116.975 224.218 117.527 223.774C118.091 223.33 119.009 223.108 120.281 223.108C121.793 223.108 122.681 223.45 122.945 224.134V223.288H124.457V232.828C124.457 233.632 124.307 234.262 124.007 234.718C123.707 235.174 123.257 235.492 122.657 235.672C122.057 235.864 121.277 235.96 120.317 235.96ZM120.515 231.1C121.367 231.1 121.967 230.998 122.315 230.794C122.663 230.59 122.837 230.206 122.837 229.642V225.7C122.837 225.304 122.771 225.004 122.639 224.8C122.519 224.596 122.291 224.452 121.955 224.368C121.619 224.272 121.127 224.224 120.479 224.224C119.867 224.224 119.405 224.266 119.093 224.35C118.793 224.434 118.583 224.584 118.463 224.8C118.355 225.004 118.301 225.304 118.301 225.7V229.642C118.301 230.05 118.361 230.356 118.481 230.56C118.601 230.764 118.817 230.908 119.129 230.992C119.441 231.064 119.903 231.1 120.515 231.1Z" fill="white"/>
<g filter="url(#filter3_d_369_436)">
<path d="M218.23 179.16L211.15 183.08V178.16L219.35 173.04H224.07V199H218.23V179.16ZM242.513 199.4C241.34 199.4 240.38 199.36 239.633 199.28C238.886 199.2 238.073 199.04 237.193 198.8C236.286 198.533 235.553 198.16 234.993 197.68C234.433 197.173 233.966 196.453 233.593 195.52C233.193 194.613 232.993 193.52 232.993 192.24V179.8C232.993 178.573 233.18 177.493 233.553 176.56C233.926 175.627 234.406 174.893 234.993 174.36C235.5 173.907 236.193 173.547 237.073 173.28C237.953 172.987 238.833 172.8 239.713 172.72C240.726 172.667 241.66 172.64 242.513 172.64C243.713 172.64 244.673 172.68 245.393 172.76C246.113 172.813 246.913 172.973 247.793 173.24C248.753 173.533 249.513 173.92 250.073 174.4C250.633 174.88 251.113 175.573 251.513 176.48C251.913 177.387 252.113 178.493 252.113 179.8V192.24C252.113 193.467 251.913 194.547 251.513 195.48C251.14 196.413 250.66 197.133 250.073 197.64C249.54 198.093 248.806 198.467 247.873 198.76C246.966 199.053 246.1 199.227 245.273 199.28C244.526 199.36 243.606 199.4 242.513 199.4ZM242.593 195.64C243.713 195.64 244.513 195.573 244.993 195.44C245.473 195.28 245.793 195 245.953 194.6C246.113 194.2 246.193 193.547 246.193 192.64V179.4C246.193 178.493 246.113 177.84 245.953 177.44C245.793 177.04 245.473 176.773 244.993 176.64C244.513 176.48 243.713 176.4 242.593 176.4C241.446 176.4 240.62 176.48 240.113 176.64C239.633 176.773 239.313 177.04 239.153 177.44C238.993 177.84 238.913 178.493 238.913 179.4V192.64C238.913 193.547 238.993 194.2 239.153 194.6C239.313 195 239.633 195.28 240.113 195.44C240.62 195.573 241.446 195.64 242.593 195.64ZM276.116 172.64H279.596L266.636 199.4H263.156L276.116 172.64ZM262.316 187.84C260.716 187.84 259.436 187.72 258.476 187.48C257.543 187.213 256.836 186.76 256.356 186.12C255.876 185.453 255.636 184.493 255.636 183.24V178.48C255.636 177.627 255.77 176.867 256.036 176.2C256.303 175.533 256.65 175.013 257.076 174.64C257.45 174.32 257.943 174.067 258.556 173.88C259.17 173.667 259.783 173.52 260.396 173.44C261.09 173.387 261.73 173.36 262.316 173.36C263.143 173.36 263.81 173.387 264.316 173.44C264.85 173.493 265.41 173.613 265.996 173.8C266.636 174.013 267.156 174.293 267.556 174.64C267.956 174.987 268.29 175.48 268.556 176.12C268.823 176.76 268.956 177.547 268.956 178.48V183.24C268.956 184.493 268.716 185.453 268.236 186.12C267.783 186.76 267.076 187.213 266.116 187.48C265.183 187.72 263.916 187.84 262.316 187.84ZM262.316 184.8C263.783 184.8 264.516 184.413 264.516 183.64V177.76C264.516 176.853 263.783 176.4 262.316 176.4C260.823 176.4 260.076 176.853 260.076 177.76V183.64C260.076 184.093 260.25 184.4 260.596 184.56C260.943 184.72 261.516 184.8 262.316 184.8ZM280.236 199.4C278.636 199.4 277.356 199.267 276.396 199C275.463 198.76 274.756 198.32 274.276 197.68C273.796 197.013 273.556 196.053 273.556 194.8V190.04C273.556 189.187 273.69 188.427 273.956 187.76C274.223 187.093 274.57 186.573 274.996 186.2C275.37 185.88 275.863 185.627 276.476 185.44C277.09 185.227 277.703 185.08 278.316 185C279.01 184.947 279.65 184.92 280.236 184.92C281.063 184.92 281.73 184.947 282.236 185C282.77 185.053 283.33 185.173 283.916 185.36C284.556 185.573 285.076 185.853 285.476 186.2C285.876 186.547 286.21 187.04 286.476 187.68C286.743 188.32 286.876 189.107 286.876 190.04V194.8C286.876 196.053 286.636 197.013 286.156 197.68C285.703 198.32 284.996 198.76 284.036 199C283.103 199.267 281.836 199.4 280.236 199.4ZM280.236 196.36C281.703 196.36 282.436 195.973 282.436 195.2V189.32C282.436 188.413 281.703 187.96 280.236 187.96C278.743 187.96 277.996 188.413 277.996 189.32V195.2C277.996 195.973 278.743 196.36 280.236 196.36Z" fill="#FF2020"/>
</g>
<path d="M229.642 221.542H225.682V220.318H235.348V221.542H231.406V232H229.642V221.542ZM240.855 232.18C238.191 232.18 236.859 231.292 236.859 229.516V226.078C236.859 225.022 237.159 224.266 237.759 223.81C238.371 223.342 239.355 223.108 240.711 223.108C241.995 223.108 242.919 223.33 243.483 223.774C244.059 224.218 244.347 224.986 244.347 226.078V228.004H238.497V229.318C238.497 229.918 238.707 230.35 239.127 230.614C239.547 230.878 240.195 231.01 241.071 231.01C241.899 231.01 242.877 230.866 244.005 230.578V231.82C242.901 232.06 241.851 232.18 240.855 232.18ZM242.727 226.942V225.574C242.727 225.046 242.565 224.686 242.241 224.494C241.929 224.29 241.389 224.188 240.621 224.188C239.877 224.188 239.337 224.29 239.001 224.494C238.665 224.686 238.497 225.046 238.497 225.574V226.942H242.727ZM249.498 232.18C248.67 232.18 248.028 232.102 247.572 231.946C247.128 231.79 246.804 231.514 246.6 231.118C246.408 230.722 246.312 230.152 246.312 229.408C246.312 228.748 246.402 228.238 246.582 227.878C246.774 227.506 247.092 227.242 247.536 227.086C247.992 226.93 248.634 226.852 249.462 226.852H252.072V225.466C252.072 225.142 252.006 224.896 251.874 224.728C251.754 224.548 251.544 224.422 251.244 224.35C250.956 224.278 250.53 224.242 249.966 224.242C249.066 224.242 248.07 224.314 246.978 224.458V223.27C248.166 223.162 249.24 223.108 250.2 223.108C251.208 223.108 251.952 223.186 252.432 223.342C252.912 223.486 253.242 223.744 253.422 224.116C253.602 224.488 253.692 225.064 253.692 225.844V232H252.126V231.172C251.994 231.844 251.118 232.18 249.498 232.18ZM249.768 231.118C250.356 231.118 250.854 231.076 251.262 230.992C251.802 230.884 252.072 230.632 252.072 230.236V227.86H249.57C249.054 227.86 248.682 227.902 248.454 227.986C248.226 228.058 248.076 228.202 248.004 228.418C247.932 228.634 247.896 228.982 247.896 229.462C247.896 229.894 247.938 230.23 248.022 230.47C248.106 230.698 248.256 230.866 248.472 230.974C248.688 231.07 249.012 231.118 249.444 231.118H249.768ZM256.502 223.288H258.122V224.35C258.29 223.522 259.268 223.108 261.056 223.108C262.508 223.108 263.414 223.504 263.774 224.296C263.882 223.912 264.206 223.618 264.746 223.414C265.298 223.21 265.97 223.108 266.762 223.108C267.842 223.108 268.604 223.312 269.048 223.72C269.492 224.116 269.714 224.746 269.714 225.61V232H268.094V225.718C268.094 225.49 268.076 225.304 268.04 225.16C268.004 225.016 267.932 224.872 267.824 224.728C267.584 224.428 267.05 224.278 266.222 224.278C265.586 224.278 265.112 224.32 264.8 224.404C264.488 224.488 264.272 224.632 264.152 224.836C264.044 225.04 263.99 225.334 263.99 225.718V232H262.37V225.718C262.37 225.49 262.352 225.304 262.316 225.16C262.28 225.016 262.208 224.872 262.1 224.728C261.86 224.428 261.332 224.278 260.516 224.278C259.856 224.278 259.358 224.32 259.022 224.404C258.686 224.488 258.452 224.632 258.32 224.836C258.188 225.028 258.122 225.322 258.122 225.718V232H256.502V223.288Z" fill="white"/>
<defs>
<filter id="filter0_d_369_436" x="0.154297" y="0.824219" width="170.697" height="90.8159" filterUnits="userSpaceOnUse" color-interpolation-filters="sRGB">
<feFlood flood-opacity="0" result="BackgroundImageFix"/>
<feColorMatrix in="SourceAlpha" type="matrix" values="0 0 0 0 0 0 0 0 0 0 0 0 0 0 0 0 0 0 127 0" result="hardAlpha"/>
<feOffset/>
<feGaussianBlur stdDeviation="12"/>
<feComposite in2="hardAlpha" operator="out"/>
<feColorMatrix type="matrix" values="0 0 0 0 1 0 0 0 0 0.12549 0 0 0 0 0.12549 0 0 0 0.5 0"/>
<feBlend mode="normal" in2="BackgroundImageFix" result="effect1_dropShadow_369_436"/>
<feBlend mode="normal" in="SourceGraphic" in2="effect1_dropShadow_369_436" result="shape"/>
</filter>
<filter id="filter1_d_369_436" x="172.882" y="9.41406" width="151.688" height="84.126" filterUnits="userSpaceOnUse" color-interpolation-filters="sRGB">
<feFlood flood-opacity="0" result="BackgroundImageFix"/>
<feColorMatrix in="SourceAlpha" type="matrix" values="0 0 0 0 0 0 0 0 0 0 0 0 0 0 0 0 0 0 127 0" result="hardAlpha"/>
<feOffset/>
<feGaussianBlur stdDeviation="12"/>
<feComposite in2="hardAlpha" operator="out"/>
<feColorMatrix type="matrix" values="0 0 0 0 1 0 0 0 0 0.12549 0 0 0 0 0.12549 0 0 0 0.5 0"/>
<feBlend mode="normal" in2="BackgroundImageFix" result="effect1_dropShadow_369_436"/>
<feBlend mode="normal" in="SourceGraphic" in2="effect1_dropShadow_369_436" result="shape"/>
</filter>
<filter id="filter2_d_369_436" x="16.3301" y="143.368" width="138.871" height="80.1118" filterUnits="userSpaceOnUse" color-interpolation-filters="sRGB">
<feFlood flood-opacity="0" result="BackgroundImageFix"/>
<feColorMatrix in="SourceAlpha" type="matrix" values="0 0 0 0 0 0 0 0 0 0 0 0 0 0 0 0 0 0 127 0" result="hardAlpha"/>
<feOffset/>
<feGaussianBlur stdDeviation="12"/>
<feComposite in2="hardAlpha" operator="out"/>
<feColorMatrix type="matrix" values="0 0 0 0 1 0 0 0 0 0.12549 0 0 0 0 0.12549 0 0 0 0.5 0"/>
<feBlend mode="normal" in2="BackgroundImageFix" result="effect1_dropShadow_369_436"/>
<feBlend mode="normal" in="SourceGraphic" in2="effect1_dropShadow_369_436" result="shape"/>
</filter>
<filter id="filter3_d_369_436" x="187.15" y="148.64" width="123.726" height="74.7598" filterUnits="userSpaceOnUse" color-interpolation-filters="sRGB">
<feFlood flood-opacity="0" result="BackgroundImageFix"/>
<feColorMatrix in="SourceAlpha" type="matrix" values="0 0 0 0 0 0 0 0 0 0 0 0 0 0 0 0 0 0 127 0" result="hardAlpha"/>
<feOffset/>
<feGaussianBlur stdDeviation="12"/>
<feComposite in2="hardAlpha" operator="out"/>
<feColorMatrix type="matrix" values="0 0 0 0 1 0 0 0 0 0.12549 0 0 0 0 0.12549 0 0 0 0.5 0"/>
<feBlend mode="normal" in2="BackgroundImageFix" result="effect1_dropShadow_369_436"/>
<feBlend mode="normal" in="SourceGraphic" in2="effect1_dropShadow_369_436" result="shape"/>
</filter>
</defs>
</svg>
