<svg width="604" height="106" viewBox="0 0 604 106" fill="none" xmlns="http://www.w3.org/2000/svg">
<path d="M22.512 90.318H24.258V100.776H30V102H22.512V90.318ZM31.7556 90.138H33.3756V91.83H31.7556V90.138ZM31.7556 93.288H33.3756V102H31.7556V93.288ZM42.5033 101.442C42.2633 101.934 41.3873 102.18 39.8753 102.18C39.3233 102.18 38.8853 102.162 38.5613 102.126C38.2373 102.09 37.9193 102.018 37.6073 101.91C37.2833 101.79 37.0253 101.622 36.8333 101.406C36.6413 101.19 36.4853 100.896 36.3653 100.524C36.2453 100.164 36.1853 99.708 36.1853 99.156V95.934C36.1853 94.926 36.4973 94.206 37.1213 93.774C37.7573 93.33 38.8073 93.108 40.2713 93.108C41.6633 93.108 42.6533 93.33 43.2413 93.774C43.8293 94.206 44.1233 94.926 44.1233 95.934V105.744H42.5033V101.442ZM40.1993 101.064C40.8353 101.064 41.3093 101.022 41.6213 100.938C41.9453 100.842 42.1733 100.674 42.3053 100.434C42.4373 100.182 42.5033 99.816 42.5033 99.336V96.15C42.5033 95.598 42.4373 95.196 42.3053 94.944C42.1733 94.68 41.9513 94.506 41.6393 94.422C41.3273 94.326 40.8533 94.278 40.2173 94.278C39.4733 94.278 38.9393 94.32 38.6153 94.404C38.3033 94.488 38.0933 94.656 37.9853 94.908C37.8893 95.16 37.8413 95.574 37.8413 96.15V99.336C37.8413 99.828 37.9133 100.194 38.0573 100.434C38.2013 100.674 38.4353 100.842 38.7593 100.938C39.0953 101.022 39.5753 101.064 40.1993 101.064ZM49.6331 102.18C48.5171 102.18 47.7311 101.982 47.2751 101.586C46.8311 101.178 46.6091 100.542 46.6091 99.678V93.288H48.2291V99.588C48.2291 99.816 48.2471 100.002 48.2831 100.146C48.3311 100.278 48.4091 100.416 48.5171 100.56C48.7331 100.872 49.2611 101.028 50.1011 101.028C50.9891 101.028 51.6131 100.944 51.9731 100.776C52.3211 100.608 52.4951 100.302 52.4951 99.858V93.288H54.1151V102H52.4951V100.938C52.3391 101.766 51.3851 102.18 49.6331 102.18ZM56.9274 90.138H58.5474V91.83H56.9274V90.138ZM56.9274 93.288H58.5474V102H56.9274V93.288ZM64.4711 102.18C63.6071 102.18 62.9291 102.096 62.4371 101.928C61.9451 101.748 61.5851 101.46 61.3571 101.064C61.1411 100.668 61.0331 100.116 61.0331 99.408V95.574C61.0331 94.698 61.3031 94.068 61.8431 93.684C62.3951 93.3 63.3011 93.108 64.5611 93.108C65.3171 93.108 65.9651 93.204 66.5051 93.396C67.0571 93.588 67.3391 93.864 67.3511 94.224H67.3871L67.3511 92.01V89.4H68.9711V102H67.3871V100.974C67.3871 101.298 67.1291 101.574 66.6131 101.802C66.0971 102.054 65.3831 102.18 64.4711 102.18ZM64.8131 101.064C65.7131 101.064 66.3611 100.962 66.7571 100.758C67.1531 100.554 67.3511 100.206 67.3511 99.714V95.412C67.3511 94.632 66.5531 94.242 64.9571 94.242C63.9971 94.242 63.3731 94.314 63.0851 94.458C62.7851 94.602 62.6351 94.92 62.6351 95.412V99.714C62.6351 100.206 62.7971 100.554 63.1211 100.758C63.4571 100.962 64.0211 101.064 64.8131 101.064ZM71.6403 90.138H73.2603V91.83H71.6403V90.138ZM71.6403 93.288H73.2603V102H71.6403V93.288ZM79.724 102.18C78.98 102.18 78.398 102.102 77.978 101.946C77.558 101.778 77.252 101.502 77.06 101.118C76.88 100.722 76.79 100.17 76.79 99.462V94.35H74.846V93.288H76.79V90.588H78.428V93.288H81.542V94.35H78.428V99.552C78.428 99.984 78.476 100.308 78.572 100.524C78.68 100.74 78.86 100.896 79.112 100.992C79.376 101.076 79.754 101.118 80.246 101.118C80.402 101.118 80.834 101.07 81.542 100.974V102.036C80.93 102.132 80.324 102.18 79.724 102.18ZM85.3822 102.126L82.0162 93.288H83.7802L86.2102 100.398H86.2462L88.4422 93.288H90.0802L85.7062 105.744H84.0142L85.3822 102.126Z" fill="white"/>
<g filter="url(#filter0_d_338_208)">
<path d="M38.152 67.64C35.208 67.64 30.792 67.4053 24.904 66.936V59.192C30.1947 60.1733 34.184 60.664 36.872 60.664C39.2187 60.664 40.9253 60.408 41.992 59.896C43.0587 59.3413 43.592 58.488 43.592 57.336V51.128C43.592 49.976 43.208 49.1653 42.44 48.696C41.672 48.184 40.4133 47.928 38.664 47.928H25.864V25.464H52.104V32.632H35.208V41.08H41.736C44.2107 41.08 46.6213 41.5493 48.968 42.488C50.248 43.0427 51.272 43.896 52.04 45.048C52.808 46.2 53.192 47.544 53.192 49.08V57.784C53.192 59.448 52.872 60.9413 52.232 62.264C51.592 63.544 50.7813 64.5253 49.8 65.208C48.9467 65.848 47.7947 66.36 46.344 66.744C44.936 67.128 43.5707 67.384 42.248 67.512C40.712 67.5973 39.3467 67.64 38.152 67.64ZM76.621 67.64C74.7437 67.64 73.2077 67.576 72.013 67.448C70.8183 67.32 69.517 67.064 68.109 66.68C66.6583 66.2533 65.485 65.656 64.589 64.888C63.693 64.0773 62.9463 62.9253 62.349 61.432C61.709 59.9813 61.389 58.232 61.389 56.184V36.28C61.389 34.3173 61.6877 32.5893 62.285 31.096C62.8823 29.6027 63.6503 28.4293 64.589 27.576C65.3997 26.8507 66.509 26.2747 67.917 25.848C69.325 25.3787 70.733 25.08 72.141 24.952C73.7623 24.8667 75.2557 24.824 76.621 24.824C78.541 24.824 80.077 24.888 81.229 25.016C82.381 25.1013 83.661 25.3573 85.069 25.784C86.605 26.2533 87.821 26.872 88.717 27.64C89.613 28.408 90.381 29.5173 91.021 30.968C91.661 32.4187 91.981 34.1893 91.981 36.28V56.184C91.981 58.1467 91.661 59.8747 91.021 61.368C90.4237 62.8613 89.6557 64.0133 88.717 64.824C87.8637 65.5493 86.6903 66.1467 85.197 66.616C83.7463 67.0853 82.3597 67.3627 81.037 67.448C79.8423 67.576 78.3703 67.64 76.621 67.64ZM76.749 61.624C78.541 61.624 79.821 61.5173 80.589 61.304C81.357 61.048 81.869 60.6 82.125 59.96C82.381 59.32 82.509 58.2747 82.509 56.824V35.64C82.509 34.1893 82.381 33.144 82.125 32.504C81.869 31.864 81.357 31.4373 80.589 31.224C79.821 30.968 78.541 30.84 76.749 30.84C74.9143 30.84 73.5917 30.968 72.781 31.224C72.013 31.4373 71.501 31.864 71.245 32.504C70.989 33.144 70.861 34.1893 70.861 35.64V56.824C70.861 58.2747 70.989 59.32 71.245 59.96C71.501 60.6 72.013 61.048 72.781 61.304C73.5917 61.5173 74.9143 61.624 76.749 61.624ZM130.386 24.824H135.954L115.218 67.64H109.65L130.386 24.824ZM108.306 49.144C105.746 49.144 103.698 48.952 102.162 48.568C100.669 48.1413 99.538 47.416 98.77 46.392C98.002 45.3253 97.618 43.7893 97.618 41.784V34.168C97.618 32.8027 97.8313 31.5867 98.258 30.52C98.6847 29.4533 99.2393 28.6213 99.922 28.024C100.519 27.512 101.309 27.1067 102.29 26.808C103.271 26.4667 104.253 26.232 105.234 26.104C106.343 26.0187 107.367 25.976 108.306 25.976C109.629 25.976 110.695 26.0187 111.506 26.104C112.359 26.1893 113.255 26.3813 114.194 26.68C115.218 27.0213 116.05 27.4693 116.69 28.024C117.33 28.5787 117.863 29.368 118.29 30.392C118.717 31.416 118.93 32.6747 118.93 34.168V41.784C118.93 43.7893 118.546 45.3253 117.778 46.392C117.053 47.416 115.922 48.1413 114.386 48.568C112.893 48.952 110.866 49.144 108.306 49.144ZM108.306 44.28C110.653 44.28 111.826 43.6613 111.826 42.424V33.016C111.826 31.5653 110.653 30.84 108.306 30.84C105.917 30.84 104.722 31.5653 104.722 33.016V42.424C104.722 43.1493 104.999 43.64 105.554 43.896C106.109 44.152 107.026 44.28 108.306 44.28ZM136.978 67.64C134.418 67.64 132.37 67.4267 130.834 67C129.341 66.616 128.21 65.912 127.442 64.888C126.674 63.8213 126.29 62.2853 126.29 60.28V52.664C126.29 51.2987 126.503 50.0827 126.93 49.016C127.357 47.9493 127.911 47.1173 128.594 46.52C129.191 46.008 129.981 45.6027 130.962 45.304C131.943 44.9627 132.925 44.728 133.906 44.6C135.015 44.5147 136.039 44.472 136.978 44.472C138.301 44.472 139.367 44.5147 140.178 44.6C141.031 44.6853 141.927 44.8773 142.866 45.176C143.89 45.5173 144.722 45.9653 145.362 46.52C146.002 47.0747 146.535 47.864 146.962 48.888C147.389 49.912 147.602 51.1707 147.602 52.664V60.28C147.602 62.2853 147.218 63.8213 146.45 64.888C145.725 65.912 144.594 66.616 143.058 67C141.565 67.4267 139.538 67.64 136.978 67.64ZM136.978 62.776C139.325 62.776 140.498 62.1573 140.498 60.92V51.512C140.498 50.0613 139.325 49.336 136.978 49.336C134.589 49.336 133.394 50.0613 133.394 51.512V60.92C133.394 62.1573 134.589 62.776 136.978 62.776Z" fill="#FF2020"/>
</g>
<path d="M199.512 90.318H204.156C207.432 90.318 209.07 91.434 209.07 93.666V98.832C209.07 100.944 207.438 102 204.174 102H199.512V90.318ZM204.048 100.812C206.28 100.812 207.396 100.14 207.396 98.796V93.648C207.396 93.216 207.306 92.85 207.126 92.55C206.946 92.25 206.694 92.028 206.37 91.884C206.046 91.752 205.71 91.662 205.362 91.614C205.014 91.554 204.606 91.524 204.138 91.524H201.258V100.812H204.048ZM215.293 102.18C212.629 102.18 211.297 101.292 211.297 99.516V96.078C211.297 95.022 211.597 94.266 212.197 93.81C212.809 93.342 213.793 93.108 215.149 93.108C216.433 93.108 217.357 93.33 217.921 93.774C218.497 94.218 218.785 94.986 218.785 96.078V98.004H212.935V99.318C212.935 99.918 213.145 100.35 213.565 100.614C213.985 100.878 214.633 101.01 215.509 101.01C216.337 101.01 217.315 100.866 218.443 100.578V101.82C217.339 102.06 216.289 102.18 215.293 102.18ZM217.165 96.942V95.574C217.165 95.046 217.003 94.686 216.679 94.494C216.367 94.29 215.827 94.188 215.059 94.188C214.315 94.188 213.775 94.29 213.439 94.494C213.103 94.686 212.935 95.046 212.935 95.574V96.942H217.165ZM219.958 93.288H221.668L224.08 100.596H224.17L226.51 93.288H228.076L225.034 102H223.09L219.958 93.288ZM233.258 102.18C230.594 102.18 229.262 101.292 229.262 99.516V96.078C229.262 95.022 229.562 94.266 230.162 93.81C230.774 93.342 231.758 93.108 233.114 93.108C234.398 93.108 235.322 93.33 235.886 93.774C236.462 94.218 236.75 94.986 236.75 96.078V98.004H230.9V99.318C230.9 99.918 231.11 100.35 231.53 100.614C231.95 100.878 232.598 101.01 233.474 101.01C234.302 101.01 235.28 100.866 236.408 100.578V101.82C235.304 102.06 234.254 102.18 233.258 102.18ZM235.13 96.942V95.574C235.13 95.046 234.968 94.686 234.644 94.494C234.332 94.29 233.792 94.188 233.024 94.188C232.28 94.188 231.74 94.29 231.404 94.494C231.068 94.686 230.9 95.046 230.9 95.574V96.942H235.13ZM239.218 89.4H240.838V102H239.218V89.4ZM247.338 102.18C246.57 102.18 245.994 102.15 245.61 102.09C245.226 102.042 244.842 101.928 244.458 101.748C244.062 101.568 243.774 101.28 243.594 100.884C243.414 100.476 243.324 99.93 243.324 99.246V96.222C243.324 95.682 243.39 95.208 243.522 94.8C243.654 94.392 243.828 94.074 244.044 93.846C244.224 93.642 244.494 93.486 244.854 93.378C245.226 93.258 245.604 93.18 245.988 93.144C246.42 93.12 246.87 93.108 247.338 93.108C247.962 93.108 248.43 93.126 248.742 93.162C249.066 93.186 249.408 93.246 249.768 93.342C250.14 93.45 250.428 93.612 250.632 93.828C250.836 94.044 251.01 94.356 251.154 94.764C251.286 95.184 251.352 95.67 251.352 96.222V99.246C251.352 100.266 251.118 101.01 250.65 101.478C250.458 101.67 250.182 101.82 249.822 101.928C249.462 102.036 249.09 102.108 248.706 102.144C248.25 102.168 247.794 102.18 247.338 102.18ZM247.338 101.118C247.842 101.118 248.208 101.106 248.436 101.082C248.664 101.058 248.886 100.992 249.102 100.884C249.318 100.788 249.468 100.632 249.552 100.416C249.648 100.188 249.696 99.876 249.696 99.48V95.952C249.696 95.412 249.63 95.022 249.498 94.782C249.366 94.53 249.138 94.368 248.814 94.296C248.502 94.212 248.01 94.17 247.338 94.17C246.666 94.17 246.168 94.212 245.844 94.296C245.532 94.368 245.31 94.53 245.178 94.782C245.046 95.022 244.98 95.412 244.98 95.952V99.48C244.98 99.876 245.022 100.188 245.106 100.416C245.202 100.632 245.358 100.788 245.574 100.884C245.79 100.992 246.012 101.058 246.24 101.082C246.468 101.106 246.834 101.118 247.338 101.118ZM253.879 93.288H255.481V94.224H255.499C255.631 93.48 256.621 93.108 258.469 93.108C259.573 93.108 260.407 93.342 260.971 93.81C261.535 94.266 261.817 94.854 261.817 95.574V99.156C261.817 99.672 261.739 100.122 261.583 100.506C261.439 100.89 261.247 101.19 261.007 101.406C260.791 101.61 260.491 101.772 260.107 101.892C259.735 102.012 259.363 102.09 258.991 102.126C258.655 102.162 258.247 102.18 257.767 102.18C257.239 102.18 256.753 102.12 256.309 102C255.877 101.868 255.607 101.682 255.499 101.442V105.744H253.879V93.288ZM257.803 101.082C258.427 101.082 258.901 101.04 259.225 100.956C259.561 100.86 259.801 100.692 259.945 100.452C260.089 100.212 260.161 99.846 260.161 99.354V96.15C260.161 95.61 260.089 95.208 259.945 94.944C259.801 94.68 259.561 94.506 259.225 94.422C258.901 94.326 258.421 94.278 257.785 94.278C257.149 94.278 256.675 94.326 256.363 94.422C256.051 94.506 255.829 94.68 255.697 94.944C255.565 95.196 255.499 95.598 255.499 96.15V99.354C255.499 99.846 255.565 100.212 255.697 100.452C255.841 100.692 256.075 100.86 256.399 100.956C256.723 101.04 257.191 101.082 257.803 101.082ZM264.302 93.288H265.922V94.35C266.09 93.522 267.068 93.108 268.856 93.108C270.308 93.108 271.214 93.504 271.574 94.296C271.682 93.912 272.006 93.618 272.546 93.414C273.098 93.21 273.77 93.108 274.562 93.108C275.642 93.108 276.404 93.312 276.848 93.72C277.292 94.116 277.514 94.746 277.514 95.61V102H275.894V95.718C275.894 95.49 275.876 95.304 275.84 95.16C275.804 95.016 275.732 94.872 275.624 94.728C275.384 94.428 274.85 94.278 274.022 94.278C273.386 94.278 272.912 94.32 272.6 94.404C272.288 94.488 272.072 94.632 271.952 94.836C271.844 95.04 271.79 95.334 271.79 95.718V102H270.17V95.718C270.17 95.49 270.152 95.304 270.116 95.16C270.08 95.016 270.008 94.872 269.9 94.728C269.66 94.428 269.132 94.278 268.316 94.278C267.656 94.278 267.158 94.32 266.822 94.404C266.486 94.488 266.252 94.632 266.12 94.836C265.988 95.028 265.922 95.322 265.922 95.718V102H264.302V93.288ZM283.988 102.18C281.324 102.18 279.992 101.292 279.992 99.516V96.078C279.992 95.022 280.292 94.266 280.892 93.81C281.504 93.342 282.488 93.108 283.844 93.108C285.128 93.108 286.052 93.33 286.616 93.774C287.192 94.218 287.48 94.986 287.48 96.078V98.004H281.63V99.318C281.63 99.918 281.84 100.35 282.26 100.614C282.68 100.878 283.328 101.01 284.204 101.01C285.032 101.01 286.01 100.866 287.138 100.578V101.82C286.034 102.06 284.984 102.18 283.988 102.18ZM285.86 96.942V95.574C285.86 95.046 285.698 94.686 285.374 94.494C285.062 94.29 284.522 94.188 283.754 94.188C283.01 94.188 282.47 94.29 282.134 94.494C281.798 94.686 281.63 95.046 281.63 95.574V96.942H285.86ZM289.949 93.288H291.569V94.35C291.737 93.522 292.691 93.108 294.431 93.108C295.547 93.108 296.327 93.312 296.771 93.72C297.227 94.116 297.455 94.746 297.455 95.61V102H295.835V95.7C295.835 95.472 295.817 95.286 295.781 95.142C295.745 94.998 295.673 94.854 295.565 94.71C295.325 94.41 294.791 94.26 293.963 94.26C293.327 94.26 292.835 94.308 292.487 94.404C292.151 94.488 291.911 94.632 291.767 94.836C291.635 95.04 291.569 95.328 291.569 95.7V102H289.949V93.288ZM303.921 102.18C303.177 102.18 302.595 102.102 302.175 101.946C301.755 101.778 301.449 101.502 301.257 101.118C301.077 100.722 300.987 100.17 300.987 99.462V94.35H299.043V93.288H300.987V90.588H302.625V93.288H305.739V94.35H302.625V99.552C302.625 99.984 302.673 100.308 302.769 100.524C302.877 100.74 303.057 100.896 303.309 100.992C303.573 101.076 303.951 101.118 304.443 101.118C304.599 101.118 305.031 101.07 305.739 100.974V102.036C305.127 102.132 304.521 102.18 303.921 102.18Z" fill="white"/>
<g filter="url(#filter1_d_338_208)">
<path d="M201.132 61.008C201.132 59.064 201.672 57.372 202.752 55.932C203.832 54.492 205.236 53.394 206.964 52.638C208.332 52.026 209.934 51.414 211.77 50.802C213.606 50.19 215.028 49.542 216.036 48.858C217.044 48.174 217.548 47.364 217.548 46.428V41.946C217.548 40.83 217.098 40.092 216.198 39.732C215.226 39.336 213.714 39.138 211.662 39.138C209.178 39.138 205.902 39.588 201.834 40.488V34.548C205.434 33.792 209.196 33.414 213.12 33.414C217.368 33.414 220.518 34.062 222.57 35.358C224.658 36.654 225.702 38.814 225.702 41.838V46.698C225.702 48.534 225.144 50.136 224.028 51.504C222.948 52.836 221.544 53.844 219.816 54.528C218.196 55.212 216.54 55.824 214.848 56.364C213.012 57.012 211.554 57.732 210.474 58.524C209.43 59.316 208.908 60.252 208.908 61.332V63.114H225.756V69H201.132V61.008ZM243.796 69.54C241.312 69.54 237.586 69.342 232.618 68.946V62.412C237.082 63.24 240.448 63.654 242.716 63.654C244.696 63.654 246.136 63.438 247.036 63.006C247.936 62.538 248.386 61.818 248.386 60.846V55.608C248.386 54.636 248.062 53.952 247.414 53.556C246.766 53.124 245.704 52.908 244.228 52.908H233.428V33.954H255.568V40.002H241.312V47.13H246.82C248.908 47.13 250.942 47.526 252.922 48.318C254.002 48.786 254.866 49.506 255.514 50.478C256.162 51.45 256.486 52.584 256.486 53.88V61.224C256.486 62.628 256.216 63.888 255.676 65.004C255.136 66.084 254.452 66.912 253.624 67.488C252.904 68.028 251.932 68.46 250.708 68.784C249.52 69.108 248.368 69.324 247.252 69.432C245.956 69.504 244.804 69.54 243.796 69.54ZM290.294 33.414H294.992L277.496 69.54H272.798L290.294 33.414ZM271.664 53.934C269.504 53.934 267.776 53.772 266.48 53.448C265.22 53.088 264.266 52.476 263.618 51.612C262.97 50.712 262.646 49.416 262.646 47.724V41.298C262.646 40.146 262.826 39.12 263.186 38.22C263.546 37.32 264.014 36.618 264.59 36.114C265.094 35.682 265.76 35.34 266.588 35.088C267.416 34.8 268.244 34.602 269.072 34.494C270.008 34.422 270.872 34.386 271.664 34.386C272.78 34.386 273.68 34.422 274.364 34.494C275.084 34.566 275.84 34.728 276.632 34.98C277.496 35.268 278.198 35.646 278.738 36.114C279.278 36.582 279.728 37.248 280.088 38.112C280.448 38.976 280.628 40.038 280.628 41.298V47.724C280.628 49.416 280.304 50.712 279.656 51.612C279.044 52.476 278.09 53.088 276.794 53.448C275.534 53.772 273.824 53.934 271.664 53.934ZM271.664 49.83C273.644 49.83 274.634 49.308 274.634 48.264V40.326C274.634 39.102 273.644 38.49 271.664 38.49C269.648 38.49 268.64 39.102 268.64 40.326V48.264C268.64 48.876 268.874 49.29 269.342 49.506C269.81 49.722 270.584 49.83 271.664 49.83ZM295.856 69.54C293.696 69.54 291.968 69.36 290.672 69C289.412 68.676 288.458 68.082 287.81 67.218C287.162 66.318 286.838 65.022 286.838 63.33V56.904C286.838 55.752 287.018 54.726 287.378 53.826C287.738 52.926 288.206 52.224 288.782 51.72C289.286 51.288 289.952 50.946 290.78 50.694C291.608 50.406 292.436 50.208 293.264 50.1C294.2 50.028 295.064 49.992 295.856 49.992C296.972 49.992 297.872 50.028 298.556 50.1C299.276 50.172 300.032 50.334 300.824 50.586C301.688 50.874 302.39 51.252 302.93 51.72C303.47 52.188 303.92 52.854 304.28 53.718C304.64 54.582 304.82 55.644 304.82 56.904V63.33C304.82 65.022 304.496 66.318 303.848 67.218C303.236 68.082 302.282 68.676 300.986 69C299.726 69.36 298.016 69.54 295.856 69.54ZM295.856 65.436C297.836 65.436 298.826 64.914 298.826 63.87V55.932C298.826 54.708 297.836 54.096 295.856 54.096C293.84 54.096 292.832 54.708 292.832 55.932V63.87C292.832 64.914 293.84 65.436 295.856 65.436Z" fill="#FF2020"/>
</g>
<path d="M356.512 90.318H359.122L362.866 100.038L362.92 100.056L366.466 90.318H368.986V102H367.456V92.118H367.366L363.604 102H362.038L358.168 92.118H358.078V102H356.512V90.318ZM374.59 102.18C373.762 102.18 373.12 102.102 372.664 101.946C372.22 101.79 371.896 101.514 371.692 101.118C371.5 100.722 371.404 100.152 371.404 99.408C371.404 98.748 371.494 98.238 371.674 97.878C371.866 97.506 372.184 97.242 372.628 97.086C373.084 96.93 373.726 96.852 374.554 96.852H377.164V95.466C377.164 95.142 377.098 94.896 376.966 94.728C376.846 94.548 376.636 94.422 376.336 94.35C376.048 94.278 375.622 94.242 375.058 94.242C374.158 94.242 373.162 94.314 372.07 94.458V93.27C373.258 93.162 374.332 93.108 375.292 93.108C376.3 93.108 377.044 93.186 377.524 93.342C378.004 93.486 378.334 93.744 378.514 94.116C378.694 94.488 378.784 95.064 378.784 95.844V102H377.218V101.172C377.086 101.844 376.21 102.18 374.59 102.18ZM374.86 101.118C375.448 101.118 375.946 101.076 376.354 100.992C376.894 100.884 377.164 100.632 377.164 100.236V97.86H374.662C374.146 97.86 373.774 97.902 373.546 97.986C373.318 98.058 373.168 98.202 373.096 98.418C373.024 98.634 372.988 98.982 372.988 99.462C372.988 99.894 373.03 100.23 373.114 100.47C373.198 100.698 373.348 100.866 373.564 100.974C373.78 101.07 374.104 101.118 374.536 101.118H374.86ZM381.593 93.288H383.123V94.71C383.123 94.434 383.243 94.176 383.483 93.936C383.723 93.684 384.029 93.486 384.401 93.342C384.773 93.186 385.139 93.108 385.499 93.108H386.291V94.494H385.391C384.623 94.494 384.065 94.596 383.717 94.8C383.381 94.992 383.213 95.346 383.213 95.862V102H381.593V93.288ZM387.904 89.4H389.524V102H387.904V89.4ZM389.722 97.23L393.394 93.288H395.374L391.594 97.23L395.716 102H393.7L389.722 97.23ZM400.822 102.18C398.158 102.18 396.826 101.292 396.826 99.516V96.078C396.826 95.022 397.126 94.266 397.726 93.81C398.338 93.342 399.322 93.108 400.678 93.108C401.962 93.108 402.886 93.33 403.45 93.774C404.026 94.218 404.314 94.986 404.314 96.078V98.004H398.464V99.318C398.464 99.918 398.674 100.35 399.094 100.614C399.514 100.878 400.162 101.01 401.038 101.01C401.866 101.01 402.844 100.866 403.972 100.578V101.82C402.868 102.06 401.818 102.18 400.822 102.18ZM402.694 96.942V95.574C402.694 95.046 402.532 94.686 402.208 94.494C401.896 94.29 401.356 94.188 400.588 94.188C399.844 94.188 399.304 94.29 398.968 94.494C398.632 94.686 398.464 95.046 398.464 95.574V96.942H402.694ZM410.437 102.18C409.693 102.18 409.111 102.102 408.691 101.946C408.271 101.778 407.965 101.502 407.773 101.118C407.593 100.722 407.503 100.17 407.503 99.462V94.35H405.559V93.288H407.503V90.588H409.141V93.288H412.255V94.35H409.141V99.552C409.141 99.984 409.189 100.308 409.285 100.524C409.393 100.74 409.573 100.896 409.825 100.992C410.089 101.076 410.467 101.118 410.959 101.118C411.115 101.118 411.547 101.07 412.255 100.974V102.036C411.643 102.132 411.037 102.18 410.437 102.18ZM414.025 90.138H415.645V91.83H414.025V90.138ZM414.025 93.288H415.645V102H414.025V93.288ZM418.455 93.288H420.075V94.35C420.243 93.522 421.197 93.108 422.937 93.108C424.053 93.108 424.833 93.312 425.277 93.72C425.733 94.116 425.961 94.746 425.961 95.61V102H424.341V95.7C424.341 95.472 424.323 95.286 424.287 95.142C424.251 94.998 424.179 94.854 424.071 94.71C423.831 94.41 423.297 94.26 422.469 94.26C421.833 94.26 421.341 94.308 420.993 94.404C420.657 94.488 420.417 94.632 420.273 94.836C420.141 95.04 420.075 95.328 420.075 95.7V102H418.455V93.288ZM432.067 105.96C430.879 105.96 429.877 105.894 429.061 105.762V104.61C430.501 104.778 431.551 104.862 432.211 104.862C433.039 104.862 433.639 104.73 434.011 104.466C434.395 104.202 434.587 103.764 434.587 103.152V101.064C434.563 101.448 434.299 101.73 433.795 101.91C433.303 102.09 432.679 102.18 431.923 102.18C431.023 102.18 430.321 102.096 429.817 101.928C429.325 101.76 428.971 101.484 428.755 101.1C428.551 100.716 428.449 100.194 428.449 99.534V95.988C428.449 94.956 428.725 94.218 429.277 93.774C429.841 93.33 430.759 93.108 432.031 93.108C433.543 93.108 434.431 93.45 434.695 94.134V93.288H436.207V102.828C436.207 103.632 436.057 104.262 435.757 104.718C435.457 105.174 435.007 105.492 434.407 105.672C433.807 105.864 433.027 105.96 432.067 105.96ZM432.265 101.1C433.117 101.1 433.717 100.998 434.065 100.794C434.413 100.59 434.587 100.206 434.587 99.642V95.7C434.587 95.304 434.521 95.004 434.389 94.8C434.269 94.596 434.041 94.452 433.705 94.368C433.369 94.272 432.877 94.224 432.229 94.224C431.617 94.224 431.155 94.266 430.843 94.35C430.543 94.434 430.333 94.584 430.213 94.8C430.105 95.004 430.051 95.304 430.051 95.7V99.642C430.051 100.05 430.111 100.356 430.231 100.56C430.351 100.764 430.567 100.908 430.879 100.992C431.191 101.064 431.653 101.1 432.265 101.1Z" fill="white"/>
<g filter="url(#filter2_d_338_208)">
<path d="M367.576 45.192L359.08 49.896V43.992L368.92 37.848H374.584V69H367.576V45.192ZM395.708 69.48C393.5 69.48 390.188 69.304 385.772 68.952V63.144C389.74 63.88 392.732 64.248 394.748 64.248C396.508 64.248 397.788 64.056 398.588 63.672C399.388 63.256 399.788 62.616 399.788 61.752V57.096C399.788 56.232 399.5 55.624 398.924 55.272C398.348 54.888 397.404 54.696 396.092 54.696H386.492V37.848H406.172V43.224H393.5V49.56H398.396C400.252 49.56 402.06 49.912 403.82 50.616C404.78 51.032 405.548 51.672 406.124 52.536C406.7 53.4 406.988 54.408 406.988 55.56V62.088C406.988 63.336 406.748 64.456 406.268 65.448C405.788 66.408 405.18 67.144 404.444 67.656C403.804 68.136 402.94 68.52 401.852 68.808C400.796 69.096 399.772 69.288 398.78 69.384C397.628 69.448 396.604 69.48 395.708 69.48ZM437.04 37.368H441.216L425.664 69.48H421.488L437.04 37.368ZM420.48 55.608C418.56 55.608 417.024 55.464 415.872 55.176C414.752 54.856 413.904 54.312 413.328 53.544C412.752 52.744 412.464 51.592 412.464 50.088V44.376C412.464 43.352 412.624 42.44 412.944 41.64C413.264 40.84 413.68 40.216 414.192 39.768C414.64 39.384 415.232 39.08 415.968 38.856C416.704 38.6 417.44 38.424 418.176 38.328C419.008 38.264 419.776 38.232 420.48 38.232C421.472 38.232 422.272 38.264 422.88 38.328C423.52 38.392 424.192 38.536 424.896 38.76C425.664 39.016 426.288 39.352 426.768 39.768C427.248 40.184 427.648 40.776 427.968 41.544C428.288 42.312 428.448 43.256 428.448 44.376V50.088C428.448 51.592 428.16 52.744 427.584 53.544C427.04 54.312 426.192 54.856 425.04 55.176C423.92 55.464 422.4 55.608 420.48 55.608ZM420.48 51.96C422.24 51.96 423.12 51.496 423.12 50.568V43.512C423.12 42.424 422.24 41.88 420.48 41.88C418.688 41.88 417.792 42.424 417.792 43.512V50.568C417.792 51.112 418 51.48 418.416 51.672C418.832 51.864 419.52 51.96 420.48 51.96ZM441.984 69.48C440.064 69.48 438.528 69.32 437.376 69C436.256 68.712 435.408 68.184 434.832 67.416C434.256 66.616 433.968 65.464 433.968 63.96V58.248C433.968 57.224 434.128 56.312 434.448 55.512C434.768 54.712 435.184 54.088 435.696 53.64C436.144 53.256 436.736 52.952 437.472 52.728C438.208 52.472 438.944 52.296 439.68 52.2C440.512 52.136 441.28 52.104 441.984 52.104C442.976 52.104 443.776 52.136 444.384 52.2C445.024 52.264 445.696 52.408 446.4 52.632C447.168 52.888 447.792 53.224 448.272 53.64C448.752 54.056 449.152 54.648 449.472 55.416C449.792 56.184 449.952 57.128 449.952 58.248V63.96C449.952 65.464 449.664 66.616 449.088 67.416C448.544 68.184 447.696 68.712 446.544 69C445.424 69.32 443.904 69.48 441.984 69.48ZM441.984 65.832C443.744 65.832 444.624 65.368 444.624 64.44V57.384C444.624 56.296 443.744 55.752 441.984 55.752C440.192 55.752 439.296 56.296 439.296 57.384V64.44C439.296 65.368 440.192 65.832 441.984 65.832Z" fill="#FF2020"/>
</g>
<path d="M504.392 91.542H500.432V90.318H510.098V91.542H506.156V102H504.392V91.542ZM515.605 102.18C512.941 102.18 511.609 101.292 511.609 99.516V96.078C511.609 95.022 511.909 94.266 512.509 93.81C513.121 93.342 514.105 93.108 515.461 93.108C516.745 93.108 517.669 93.33 518.233 93.774C518.809 94.218 519.097 94.986 519.097 96.078V98.004H513.247V99.318C513.247 99.918 513.457 100.35 513.877 100.614C514.297 100.878 514.945 101.01 515.821 101.01C516.649 101.01 517.627 100.866 518.755 100.578V101.82C517.651 102.06 516.601 102.18 515.605 102.18ZM517.477 96.942V95.574C517.477 95.046 517.315 94.686 516.991 94.494C516.679 94.29 516.139 94.188 515.371 94.188C514.627 94.188 514.087 94.29 513.751 94.494C513.415 94.686 513.247 95.046 513.247 95.574V96.942H517.477ZM524.248 102.18C523.42 102.18 522.778 102.102 522.322 101.946C521.878 101.79 521.554 101.514 521.35 101.118C521.158 100.722 521.062 100.152 521.062 99.408C521.062 98.748 521.152 98.238 521.332 97.878C521.524 97.506 521.842 97.242 522.286 97.086C522.742 96.93 523.384 96.852 524.212 96.852H526.822V95.466C526.822 95.142 526.756 94.896 526.624 94.728C526.504 94.548 526.294 94.422 525.994 94.35C525.706 94.278 525.28 94.242 524.716 94.242C523.816 94.242 522.82 94.314 521.728 94.458V93.27C522.916 93.162 523.99 93.108 524.95 93.108C525.958 93.108 526.702 93.186 527.182 93.342C527.662 93.486 527.992 93.744 528.172 94.116C528.352 94.488 528.442 95.064 528.442 95.844V102H526.876V101.172C526.744 101.844 525.868 102.18 524.248 102.18ZM524.518 101.118C525.106 101.118 525.604 101.076 526.012 100.992C526.552 100.884 526.822 100.632 526.822 100.236V97.86H524.32C523.804 97.86 523.432 97.902 523.204 97.986C522.976 98.058 522.826 98.202 522.754 98.418C522.682 98.634 522.646 98.982 522.646 99.462C522.646 99.894 522.688 100.23 522.772 100.47C522.856 100.698 523.006 100.866 523.222 100.974C523.438 101.07 523.762 101.118 524.194 101.118H524.518ZM531.252 93.288H532.872V94.35C533.04 93.522 534.018 93.108 535.806 93.108C537.258 93.108 538.164 93.504 538.524 94.296C538.632 93.912 538.956 93.618 539.496 93.414C540.048 93.21 540.72 93.108 541.512 93.108C542.592 93.108 543.354 93.312 543.798 93.72C544.242 94.116 544.464 94.746 544.464 95.61V102H542.844V95.718C542.844 95.49 542.826 95.304 542.79 95.16C542.754 95.016 542.682 94.872 542.574 94.728C542.334 94.428 541.8 94.278 540.972 94.278C540.336 94.278 539.862 94.32 539.55 94.404C539.238 94.488 539.022 94.632 538.902 94.836C538.794 95.04 538.74 95.334 538.74 95.718V102H537.12V95.718C537.12 95.49 537.102 95.304 537.066 95.16C537.03 95.016 536.958 94.872 536.85 94.728C536.61 94.428 536.082 94.278 535.266 94.278C534.606 94.278 534.108 94.32 533.772 94.404C533.436 94.488 533.202 94.632 533.07 94.836C532.938 95.028 532.872 95.322 532.872 95.718V102H531.252V93.288Z" fill="white"/>
<g filter="url(#filter3_d_338_208)">
<path d="M510.48 49.16L503.4 53.08V48.16L511.6 43.04H516.32V69H510.48V49.16ZM534.763 69.4C533.59 69.4 532.63 69.36 531.883 69.28C531.136 69.2 530.323 69.04 529.443 68.8C528.536 68.5333 527.803 68.16 527.243 67.68C526.683 67.1733 526.216 66.4533 525.843 65.52C525.443 64.6133 525.243 63.52 525.243 62.24V49.8C525.243 48.5733 525.43 47.4933 525.803 46.56C526.176 45.6267 526.656 44.8933 527.243 44.36C527.75 43.9067 528.443 43.5467 529.323 43.28C530.203 42.9867 531.083 42.8 531.963 42.72C532.976 42.6667 533.91 42.64 534.763 42.64C535.963 42.64 536.923 42.68 537.643 42.76C538.363 42.8133 539.163 42.9733 540.043 43.24C541.003 43.5333 541.763 43.92 542.323 44.4C542.883 44.88 543.363 45.5733 543.763 46.48C544.163 47.3867 544.363 48.4933 544.363 49.8V62.24C544.363 63.4667 544.163 64.5467 543.763 65.48C543.39 66.4133 542.91 67.1333 542.323 67.64C541.79 68.0933 541.056 68.4667 540.123 68.76C539.216 69.0533 538.35 69.2267 537.523 69.28C536.776 69.36 535.856 69.4 534.763 69.4ZM534.843 65.64C535.963 65.64 536.763 65.5733 537.243 65.44C537.723 65.28 538.043 65 538.203 64.6C538.363 64.2 538.443 63.5467 538.443 62.64V49.4C538.443 48.4933 538.363 47.84 538.203 47.44C538.043 47.04 537.723 46.7733 537.243 46.64C536.763 46.48 535.963 46.4 534.843 46.4C533.696 46.4 532.87 46.48 532.363 46.64C531.883 46.7733 531.563 47.04 531.403 47.44C531.243 47.84 531.163 48.4933 531.163 49.4V62.64C531.163 63.5467 531.243 64.2 531.403 64.6C531.563 65 531.883 65.28 532.363 65.44C532.87 65.5733 533.696 65.64 534.843 65.64ZM568.366 42.64H571.846L558.886 69.4H555.406L568.366 42.64ZM554.566 57.84C552.966 57.84 551.686 57.72 550.726 57.48C549.793 57.2133 549.086 56.76 548.606 56.12C548.126 55.4533 547.886 54.4933 547.886 53.24V48.48C547.886 47.6267 548.02 46.8667 548.286 46.2C548.553 45.5333 548.9 45.0133 549.326 44.64C549.7 44.32 550.193 44.0667 550.806 43.88C551.42 43.6667 552.033 43.52 552.646 43.44C553.34 43.3867 553.98 43.36 554.566 43.36C555.393 43.36 556.06 43.3867 556.566 43.44C557.1 43.4933 557.66 43.6133 558.246 43.8C558.886 44.0133 559.406 44.2933 559.806 44.64C560.206 44.9867 560.54 45.48 560.806 46.12C561.073 46.76 561.206 47.5467 561.206 48.48V53.24C561.206 54.4933 560.966 55.4533 560.486 56.12C560.033 56.76 559.326 57.2133 558.366 57.48C557.433 57.72 556.166 57.84 554.566 57.84ZM554.566 54.8C556.033 54.8 556.766 54.4133 556.766 53.64V47.76C556.766 46.8533 556.033 46.4 554.566 46.4C553.073 46.4 552.326 46.8533 552.326 47.76V53.64C552.326 54.0933 552.5 54.4 552.846 54.56C553.193 54.72 553.766 54.8 554.566 54.8ZM572.486 69.4C570.886 69.4 569.606 69.2667 568.646 69C567.713 68.76 567.006 68.32 566.526 67.68C566.046 67.0133 565.806 66.0533 565.806 64.8V60.04C565.806 59.1867 565.94 58.4267 566.206 57.76C566.473 57.0933 566.82 56.5733 567.246 56.2C567.62 55.88 568.113 55.6267 568.726 55.44C569.34 55.2267 569.953 55.08 570.566 55C571.26 54.9467 571.9 54.92 572.486 54.92C573.313 54.92 573.98 54.9467 574.486 55C575.02 55.0533 575.58 55.1733 576.166 55.36C576.806 55.5733 577.326 55.8533 577.726 56.2C578.126 56.5467 578.46 57.04 578.726 57.68C578.993 58.32 579.126 59.1067 579.126 60.04V64.8C579.126 66.0533 578.886 67.0133 578.406 67.68C577.953 68.32 577.246 68.76 576.286 69C575.353 69.2667 574.086 69.4 572.486 69.4ZM572.486 66.36C573.953 66.36 574.686 65.9733 574.686 65.2V59.32C574.686 58.4133 573.953 57.96 572.486 57.96C570.993 57.96 570.246 58.4133 570.246 59.32V65.2C570.246 65.9733 570.993 66.36 572.486 66.36Z" fill="#FF2020"/>
</g>
<defs>
<filter id="filter0_d_338_208" x="0.904297" y="0.824219" width="170.697" height="90.8159" filterUnits="userSpaceOnUse" color-interpolation-filters="sRGB">
<feFlood flood-opacity="0" result="BackgroundImageFix"/>
<feColorMatrix in="SourceAlpha" type="matrix" values="0 0 0 0 0 0 0 0 0 0 0 0 0 0 0 0 0 0 127 0" result="hardAlpha"/>
<feOffset/>
<feGaussianBlur stdDeviation="12"/>
<feComposite in2="hardAlpha" operator="out"/>
<feColorMatrix type="matrix" values="0 0 0 0 1 0 0 0 0 0.12549 0 0 0 0 0.12549 0 0 0 0.5 0"/>
<feBlend mode="normal" in2="BackgroundImageFix" result="effect1_dropShadow_338_208"/>
<feBlend mode="normal" in="SourceGraphic" in2="effect1_dropShadow_338_208" result="shape"/>
</filter>
<filter id="filter1_d_338_208" x="177.132" y="9.41406" width="151.688" height="84.126" filterUnits="userSpaceOnUse" color-interpolation-filters="sRGB">
<feFlood flood-opacity="0" result="BackgroundImageFix"/>
<feColorMatrix in="SourceAlpha" type="matrix" values="0 0 0 0 0 0 0 0 0 0 0 0 0 0 0 0 0 0 127 0" result="hardAlpha"/>
<feOffset/>
<feGaussianBlur stdDeviation="12"/>
<feComposite in2="hardAlpha" operator="out"/>
<feColorMatrix type="matrix" values="0 0 0 0 1 0 0 0 0 0.12549 0 0 0 0 0.12549 0 0 0 0.5 0"/>
<feBlend mode="normal" in2="BackgroundImageFix" result="effect1_dropShadow_338_208"/>
<feBlend mode="normal" in="SourceGraphic" in2="effect1_dropShadow_338_208" result="shape"/>
</filter>
<filter id="filter2_d_338_208" x="335.08" y="13.3682" width="138.871" height="80.1118" filterUnits="userSpaceOnUse" color-interpolation-filters="sRGB">
<feFlood flood-opacity="0" result="BackgroundImageFix"/>
<feColorMatrix in="SourceAlpha" type="matrix" values="0 0 0 0 0 0 0 0 0 0 0 0 0 0 0 0 0 0 127 0" result="hardAlpha"/>
<feOffset/>
<feGaussianBlur stdDeviation="12"/>
<feComposite in2="hardAlpha" operator="out"/>
<feColorMatrix type="matrix" values="0 0 0 0 1 0 0 0 0 0.12549 0 0 0 0 0.12549 0 0 0 0.5 0"/>
<feBlend mode="normal" in2="BackgroundImageFix" result="effect1_dropShadow_338_208"/>
<feBlend mode="normal" in="SourceGraphic" in2="effect1_dropShadow_338_208" result="shape"/>
</filter>
<filter id="filter3_d_338_208" x="479.4" y="18.6401" width="123.726" height="74.7598" filterUnits="userSpaceOnUse" color-interpolation-filters="sRGB">
<feFlood flood-opacity="0" result="BackgroundImageFix"/>
<feColorMatrix in="SourceAlpha" type="matrix" values="0 0 0 0 0 0 0 0 0 0 0 0 0 0 0 0 0 0 127 0" result="hardAlpha"/>
<feOffset/>
<feGaussianBlur stdDeviation="12"/>
<feComposite in2="hardAlpha" operator="out"/>
<feColorMatrix type="matrix" values="0 0 0 0 1 0 0 0 0 0.12549 0 0 0 0 0.12549 0 0 0 0.5 0"/>
<feBlend mode="normal" in2="BackgroundImageFix" result="effect1_dropShadow_338_208"/>
<feBlend mode="normal" in="SourceGraphic" in2="effect1_dropShadow_338_208" result="shape"/>
</filter>
</defs>
</svg>
